<svg id="Layer_1" data-name="Layer 1" xmlns="http://www.w3.org/2000/svg" viewBox="0 0 114.7 122.88"><defs><style>.cls-1{fill-rule:evenodd;}</style></defs><title>discussion</title><path class="cls-1" d="M98.66,109.33c-1.58-3.17-2.12-4.4-4.45-6.93,4.39,1.7,8.13,1.92,11.46,4,2.11,1.33,5.25,2.33,6.1,3.93,2.11,4,1.8,8.35,2.93,12.55H80.51a63.78,63.78,0,0,0-.38-8l3.17,2.53,10.78-8.21,4.58.12ZM59,49c6.76,6.52,16.33,8.49,25.9,4.42l8,3.15-2.66-6.32c8.92-7.15,7.32-17,.75-23.66a23.23,23.23,0,0,1-2.55,7.27A27,27,0,0,1,81,42.22a32.63,32.63,0,0,1-10.31,5.21A37,37,0,0,1,59,49Zm.79-30.09a3.49,3.49,0,1,1-3.49,3.49,3.49,3.49,0,0,1,3.49-3.49Zm11.53,0a3.49,3.49,0,1,1-3.49,3.49,3.49,3.49,0,0,1,3.49-3.49Zm-23.06,0a3.49,3.49,0,1,1-3.49,3.49,3.49,3.49,0,0,1,3.49-3.49ZM60.41,0h0a30.82,30.82,0,0,1,19.12,7c4.91,4.22,7.86,9.94,7.68,16.19v0C87,29.54,83.75,35.08,78.59,39A30.81,30.81,0,0,1,59.06,44.9,33.48,33.48,0,0,1,53,44.17a31.75,31.75,0,0,1-5.23-1.6L36,47.2l3.93-9.36a23.06,23.06,0,0,1-5.59-7,19,19,0,0,1-2.07-9.17c.19-6.25,3.48-11.81,8.64-15.72A30.91,30.91,0,0,1,60.41,0Zm0,2.71h0A28.13,28.13,0,0,0,42.52,8.08c-4.53,3.43-7.41,8.26-7.58,13.65a16.33,16.33,0,0,0,1.79,7.87,20.65,20.65,0,0,0,5.65,6.78l.8.64L41,42.33l6.83-2.68.51.21a27.49,27.49,0,0,0,5.25,1.66,30.2,30.2,0,0,0,5.6.68A28.2,28.2,0,0,0,77,36.84c4.53-3.43,7.41-8.26,7.57-13.65v0c.15-5.38-2.43-10.34-6.73-14a28.13,28.13,0,0,0-17.43-6.4ZM27.05,99.29a7,7,0,0,1,.74-2.57,10.51,10.51,0,0,1-4.13-7.65h-.22a3.06,3.06,0,0,1-1.5-.4,4,4,0,0,1-1.64-2c-.76-1.74-1.36-6.32.55-7.64l-.36-.23,0-.51c-.07-.92-.09-2-.11-3.21-.07-4.31-.16-7.25-3.62-8.29l-1.49-.45,1-1.21a56.29,56.29,0,0,1,8.68-8.81,22,22,0,0,1,10-4.88,12.07,12.07,0,0,1,9.77,2.73,18.61,18.61,0,0,1,2.62,2.63c7.48.73,11.4,6.46,11,13.26a14,14,0,0,1-4.06,9.44,2.85,2.85,0,0,1,1.27.33c1.44.77,1.49,2.45,1.11,3.86-.38,1.17-.85,2.54-1.3,3.68-.55,1.55-1.35,1.84-2.89,1.67-.08,3.83-1.85,5.71-4.23,8l.54,1.89c-1.5,7.28-17.45,8.07-21.76.4ZM0,122.88c1.51-19.54,5.19-12.22,21.86-22.66,4.6,12,26.7,12.75,31.54,0,14.39,9.2,21.58,2.25,21.48,22.66ZM76.08,98v2.76l-1.36,2.9a11.25,11.25,0,0,1,4.1,5.46l4.73,3.67,9.62-7.53-3-4.76V97.89A54.82,54.82,0,0,0,98.74,97a11.8,11.8,0,0,0,5.43-2.61,7.87,7.87,0,0,1-4.06-4.81c-1.72-5-.09-9.84-.86-15.31-1-7.34-5.83-9.8-10.59-9.29-6.07-5-17-2.08-19.92,6.45-1.48,4.31-.58,7.59-.74,12-.21,5.87-1.74,9.22-5.06,10.47a10.56,10.56,0,0,0,5,3.13,36.72,36.72,0,0,0,8.18,1Zm-3.34,4.49.16-.06-.09.1-.07,0Z"/></svg>