<svg width="56" height="55" viewBox="0 0 56 55" fill="none" xmlns="http://www.w3.org/2000/svg">
<path d="M34.875 2.57812H2.21875V35.2344H21.125V53.2812H53.7812V20.625H34.875V2.57812ZM16.4312 10.3125L11.0373 25.7061H14.6797L15.5569 23.2031H21.125V31.7969H5.65625V6.01562H31.4375V20.625H24.2759L20.6631 10.3125H16.4312ZM20.3324 19.7656H16.7613L18.5469 14.6697L20.3324 19.7656ZM50.3438 24.0625V49.8438H24.5625V24.0625H50.3438Z" fill="black"/>
<path d="M41.1121 27.5003H44.5924C45.054 27.5003 45.4966 27.6836 45.8229 28.01C46.1493 28.3363 46.3326 28.7789 46.3326 29.2405C46.3326 29.702 46.1493 30.1446 45.8229 30.471C45.4966 30.7973 45.054 30.9807 44.5924 30.9807V43.162C44.5924 43.6235 44.4091 44.0661 44.0828 44.3925C43.7564 44.7188 43.3138 44.9022 42.8523 44.9022C42.3907 44.9022 41.9481 44.7188 41.6218 44.3925C41.2954 44.0661 41.1121 43.6235 41.1121 43.162V37.9414H39.0512C39.2575 38.4987 39.366 39.0874 39.3719 39.6816C39.3719 40.8308 38.9927 41.948 38.2931 42.8598C37.5935 43.7716 36.6126 44.427 35.5025 44.7245C34.3924 45.0219 33.2152 44.9447 32.1534 44.5049C31.0916 44.0651 30.2047 43.2872 29.6301 42.2919C29.5157 42.0939 29.4414 41.8754 29.4115 41.6487C29.3816 41.422 29.3966 41.1917 29.4558 40.9708C29.5149 40.75 29.617 40.5429 29.7562 40.3615C29.8953 40.1801 30.0689 40.0279 30.2669 39.9136C30.4649 39.7993 30.6835 39.7252 30.9102 39.6954C31.1369 39.6656 31.3672 39.6807 31.5881 39.74C31.8089 39.7993 32.0159 39.9014 32.1972 40.0407C32.3785 40.18 32.5306 40.3536 32.6448 40.5517C32.7977 40.8159 33.0174 41.0354 33.2818 41.1881C33.5462 41.3408 33.846 41.4214 34.1513 41.4218C34.6129 41.4218 35.0555 41.2384 35.3818 40.9121C35.7082 40.5857 35.8915 40.1431 35.8915 39.6816C35.8915 39.2201 35.7082 38.7774 35.3818 38.4511C35.0555 38.1247 34.6129 37.9414 34.1513 37.9414C33.6898 37.9414 33.2472 37.7581 32.9208 37.4317C32.5945 37.1054 32.4111 36.6627 32.4111 36.2012C32.4111 35.7397 32.5945 35.2971 32.9208 34.9707C33.2472 34.6444 33.6898 34.461 34.1513 34.461C34.6129 34.461 35.0555 34.2777 35.3818 33.9513C35.7082 33.625 35.8915 33.1824 35.8915 32.7208C35.8915 32.2593 35.7082 31.8167 35.3818 31.4903C35.0555 31.164 34.6129 30.9807 34.1513 30.9807C33.846 30.981 33.5461 31.0616 33.2817 31.2143C33.0173 31.367 32.7977 31.5865 32.6448 31.8508C32.5306 32.0488 32.3785 32.2225 32.1971 32.3617C32.0158 32.501 31.8088 32.6032 31.588 32.6624C31.3672 32.7217 31.1368 32.7368 30.9102 32.7071C30.6835 32.6773 30.4649 32.6031 30.2669 32.4888C30.0688 32.3745 29.8953 32.2223 29.7561 32.0409C29.6169 31.8595 29.5149 31.6525 29.4557 31.4316C29.3966 31.2108 29.3815 30.9804 29.4114 30.7537C29.4413 30.5271 29.5156 30.3085 29.63 30.1106C30.2046 29.1152 31.0916 28.3373 32.1533 27.8975C33.2151 27.4576 34.3924 27.3804 35.5025 27.6779C36.6126 27.9753 37.5935 28.6308 38.2932 29.5426C38.9928 30.4544 39.372 31.5716 39.3719 32.7208C39.366 33.315 39.2575 33.9038 39.0512 34.461H41.1121V30.9807C40.6505 30.9807 40.2079 30.7973 39.8816 30.471C39.5552 30.1446 39.3719 29.702 39.3719 29.2405C39.3719 28.7789 39.5552 28.3363 39.8816 28.01C40.2079 27.6836 40.6505 27.5003 41.1121 27.5003Z" fill="black"/>
</svg>
