<svg width="20" height="20" viewBox="0 0 20 20" fill="none" xmlns="http://www.w3.org/2000/svg">
<path d="M15.1042 6.36458C14.7396 6.15625 14.2708 6.15625 13.8542 6.36458L10.9375 8.08333L8.95833 9.17708L6.09375 10.8958C5.72917 11.1042 5.26042 11.1042 4.84375 10.8958L2.60417 9.54167C2.23958 9.33333 1.97917 8.91667 1.97917 8.44792V5.84375C1.97917 5.42708 2.1875 5.01042 2.60417 4.75L4.84375 3.44792C5.20833 3.23958 5.67708 3.23958 6.09375 3.44792L8.33333 4.80208C8.69792 5.01042 8.95833 5.42708 8.95833 5.89583V7.61458L10.9375 6.46875V4.69792C10.9375 4.28125 10.7292 3.86458 10.3125 3.60417L6.14583 1.15625C5.78125 0.947917 5.3125 0.947917 4.89583 1.15625L0.625 3.65625C0.208333 3.86458 0 4.28125 0 4.69792V9.59375C0 10.0104 0.208333 10.4271 0.625 10.6875L4.84375 13.1354C5.20833 13.3438 5.67708 13.3438 6.09375 13.1354L8.95833 11.4687L10.9375 10.3229L13.8021 8.65625C14.1667 8.44792 14.6354 8.44792 15.0521 8.65625L17.2917 9.95833C17.6562 10.1667 17.9167 10.5833 17.9167 11.0521V13.6563C17.9167 14.0729 17.7083 14.4896 17.2917 14.75L15.1042 16.0521C14.7396 16.2604 14.2708 16.2604 13.8542 16.0521L11.6146 14.75C11.25 14.5417 10.9896 14.125 10.9896 13.6563V11.9896L9.01042 13.1354V14.8542C9.01042 15.2708 9.21875 15.6875 9.63542 15.9479L13.8542 18.3958C14.2187 18.6042 14.6875 18.6042 15.1042 18.3958L19.3229 15.9479C19.6875 15.7396 19.9479 15.3229 19.9479 14.8542V9.90625C19.9479 9.48958 19.7396 9.07292 19.3229 8.8125L15.1042 6.36458Z" fill="#8247E5"/>
</svg>
