<svg width="37" height="37" viewBox="0 0 37 37" fill="none" xmlns="http://www.w3.org/2000/svg">
<g clip-path="url(#clip0_115_13)">
<path fill-rule="evenodd" clip-rule="evenodd" d="M11.4066 8.72892C10.4492 8.72892 9.67011 9.43206 9.67011 10.2964V26.5034C9.67011 27.3679 10.4492 28.0707 11.4066 28.0707H29.3608C30.3186 28.0707 31.0972 27.3677 31.0972 26.5034V25.8836H28.0065C26.2303 25.8836 24.7852 24.5789 24.7852 22.9757V16.4986C24.7852 15.9454 25.2832 15.4956 25.8963 15.4956H26.6376V14.5142C26.6376 12.5302 28.4257 10.916 30.6241 10.916H30.9607C31.0064 10.916 31.0521 10.9165 31.0978 10.9182V10.2961C31.0978 9.43187 30.3189 8.72863 29.3614 8.72863H11.4066V8.72892ZM29.3611 28.9335H11.4066C9.92236 28.9335 8.71478 27.8432 8.71478 26.5034V10.2964C8.71478 8.95658 9.92236 7.86643 11.4066 7.86643H29.3608C30.8455 7.86643 32.0533 8.95658 32.0533 10.2964V11.3964C32.0533 11.5239 31.9904 11.6452 31.8819 11.727C31.7734 11.8091 31.6301 11.8435 31.4912 11.8207C31.3175 11.7925 31.1383 11.7785 30.9601 11.7785H30.6232C28.9523 11.7785 27.5928 13.0058 27.5928 14.5142V15.4953H31.5748C31.8386 15.4953 32.0527 15.6886 32.0527 15.9267C32.0527 16.1646 31.8382 16.3579 31.5748 16.3579H25.8963C25.812 16.3579 25.741 16.4222 25.741 16.4983V22.9751C25.741 24.1028 26.7572 25.02 28.0065 25.02L31.5754 25.0203C31.8392 25.0203 32.0533 25.2137 32.0533 25.4514V26.5028C32.0536 27.8435 30.8455 28.9335 29.3611 28.9335Z" fill="#00A2FF"/>
<path fill-rule="evenodd" clip-rule="evenodd" d="M13.8066 11.3735C13.1412 11.3735 12.6001 11.8619 12.6001 12.4624V24.3374C12.6001 24.9378 13.1412 25.4259 13.8066 25.4259H26.274C25.3795 24.9088 24.7852 24.0039 24.7852 22.9756L24.7855 16.4986C24.7855 15.9454 25.2839 15.4956 25.8966 15.4956H26.6379V14.5142C26.6379 13.4996 27.1245 12.5269 27.9556 11.847C27.7337 11.5556 27.3643 11.3733 26.9619 11.3733H13.8066V11.3735ZM26.9616 26.2884H13.8066C12.6143 26.2884 11.6446 25.4131 11.6446 24.3371L11.6444 12.4624C11.6444 11.3864 12.6143 10.5111 13.8064 10.5111H26.9616C27.8778 10.5111 28.698 11.0374 29.0022 11.8207C29.0722 11.9994 29.0042 12.1983 28.8347 12.3106C28.0574 12.8276 27.5937 13.6512 27.5937 14.5145V15.4957L28.6454 15.4956C28.9092 15.4956 29.1233 15.6887 29.1233 15.9268C29.1233 16.1649 28.9089 16.3581 28.6454 16.3581H27.6625H25.8963C25.812 16.3581 25.741 16.4224 25.741 16.4986V22.9754C25.741 24.1031 26.7572 25.0203 28.0065 25.0203L28.1028 25.0206C28.2994 25.0206 28.4759 25.1291 28.5476 25.2943C28.6192 25.4598 28.5715 25.6479 28.4277 25.7681C28.0263 26.1036 27.5059 26.2884 26.9616 26.2884" fill="#00A2FF"/>
<path fill-rule="evenodd" clip-rule="evenodd" d="M24.0183 0.862595C23.6806 0.862595 23.4059 1.1105 23.4059 1.41542C23.4059 1.72014 23.6806 1.96833 24.0183 1.96833C24.3559 1.96833 24.6307 1.72014 24.6307 1.41542C24.6307 1.1105 24.3562 0.862595 24.0183 0.862595ZM24.0183 2.83063C23.1539 2.83063 22.4498 2.19581 22.4498 1.41542C22.4498 0.63493 23.1532 1.17609e-05 24.0183 1.17609e-05C24.8834 1.17609e-05 25.5865 0.63493 25.5865 1.41542C25.5865 2.19581 24.8828 2.83063 24.0183 2.83063Z" fill="#00A2FF"/>
<path fill-rule="evenodd" clip-rule="evenodd" d="M21.9524 8.72888C21.6887 8.72888 21.4745 8.53571 21.4745 8.29768V5.58765C21.4745 5.47211 21.5261 5.36131 21.6178 5.28017L23.5404 3.57372V2.39938C23.5404 2.16146 23.7549 1.96828 24.0183 1.96828C24.2817 1.96828 24.4962 2.16146 24.4962 2.39938V3.75435C24.4962 3.8699 24.4447 3.98069 24.353 4.06183L22.43 5.76828V8.29768C22.4303 8.53599 22.2162 8.72888 21.9524 8.72888" fill="#00A2FF"/>
<path fill-rule="evenodd" clip-rule="evenodd" d="M18.8155 8.72888C18.5517 8.72888 18.3377 8.53571 18.3377 8.29768V5.76828L16.4147 4.06183C16.3235 3.98069 16.2719 3.8699 16.2719 3.75435V2.39938C16.2719 2.16146 16.4859 1.96828 16.7495 1.96828C17.0131 1.96828 17.2273 2.16146 17.2273 2.39938V3.57363L19.1504 5.28017C19.2418 5.36131 19.2934 5.47201 19.2934 5.58755V8.2975C19.2934 8.53599 19.0792 8.72888 18.8155 8.72888" fill="#00A2FF"/>
<path fill-rule="evenodd" clip-rule="evenodd" d="M16.7496 0.862595C16.4119 0.862595 16.1367 1.1105 16.1367 1.41542C16.1367 1.72014 16.4119 1.96833 16.7496 1.96833C17.0874 1.96833 17.362 1.72014 17.362 1.41542C17.362 1.1105 17.0873 0.862595 16.7496 0.862595ZM16.7496 2.83063C15.885 2.83063 15.1812 2.19581 15.1812 1.41542C15.1812 0.63493 15.8845 1.17609e-05 16.7496 1.17609e-05C17.6142 1.17609e-05 18.3175 0.63493 18.3175 1.41542C18.3175 2.19581 17.6142 2.83063 16.7496 2.83063Z" fill="#00A2FF"/>
<path fill-rule="evenodd" clip-rule="evenodd" d="M25.8375 8.72888C25.5738 8.72888 25.3596 8.53571 25.3596 8.29768V4.22299C25.3596 3.98496 25.5742 3.79179 25.8375 3.79179H28.4196C28.6833 3.79179 28.8975 3.98496 28.8975 4.22299C28.8975 4.46091 28.683 4.65428 28.4196 4.65428H26.3151V8.29797C26.3155 8.53599 26.1013 8.72888 25.8375 8.72888" fill="#00A2FF"/>
<path fill-rule="evenodd" clip-rule="evenodd" d="M29.5102 3.6698C29.1726 3.6698 28.8978 3.91799 28.8978 4.223C28.8978 4.52791 29.1726 4.77582 29.5102 4.77582C29.8478 4.77582 30.1226 4.52782 30.1226 4.223C30.1226 3.91818 29.8474 3.6698 29.5102 3.6698ZM29.5102 5.63831C28.6454 5.63831 27.942 5.00348 27.942 4.223C27.942 3.44261 28.6451 2.8074 29.5102 2.8074C30.3749 2.8074 31.0784 3.44213 31.0784 4.223C31.0781 5.00348 30.3746 5.63831 29.5102 5.63831Z" fill="#00A2FF"/>
<path fill-rule="evenodd" clip-rule="evenodd" d="M14.9305 8.72888C14.6668 8.72888 14.4528 8.53571 14.4528 8.29768V4.65428H12.348C12.0843 4.65428 11.8703 4.46091 11.8703 4.22299C11.8703 3.98496 12.0843 3.79179 12.348 3.79179H14.9305C15.1943 3.79179 15.4083 3.98496 15.4083 4.22299V8.29768C15.4083 8.53599 15.1943 8.72888 14.9305 8.72888" fill="#00A2FF"/>
<path fill-rule="evenodd" clip-rule="evenodd" d="M11.2577 3.6698C10.9199 3.6698 10.6452 3.91799 10.6452 4.223C10.6452 4.52791 10.9199 4.77582 11.2577 4.77582C11.5953 4.77582 11.8701 4.52782 11.8701 4.223C11.8701 3.91818 11.5954 3.6698 11.2577 3.6698ZM11.2577 5.63831C10.3931 5.63831 9.6897 5.00348 9.6897 4.223C9.6897 3.44261 10.3931 2.8074 11.2577 2.8074C12.1222 2.8074 12.8256 3.44213 12.8256 4.223C12.8258 5.00348 12.1222 5.63831 11.2577 5.63831Z" fill="#00A2FF"/>
<path fill-rule="evenodd" clip-rule="evenodd" d="M16.7496 34.8317C16.4119 34.8317 16.1367 35.0797 16.1367 35.3844C16.1367 35.6891 16.4119 35.9372 16.7496 35.9372C17.0873 35.9372 17.362 35.6891 17.362 35.3844C17.362 35.0797 17.0873 34.8317 16.7496 34.8317ZM16.7496 36.8C15.885 36.8 15.1812 36.165 15.1812 35.3841C15.1812 34.6035 15.8845 33.9686 16.7496 33.9686C17.6142 33.9686 18.3175 34.6035 18.3175 35.3841C18.3175 36.165 17.6142 36.8 16.7496 36.8Z" fill="#00A2FF"/>
<path fill-rule="evenodd" clip-rule="evenodd" d="M16.7495 34.8317C16.4859 34.8317 16.2719 34.638 16.2719 34.4003V33.0456C16.2719 32.93 16.3232 32.8192 16.4146 32.7382L18.3374 31.032V28.5027C18.3374 28.2646 18.5514 28.0713 18.8151 28.0713C19.0789 28.0713 19.293 28.2649 19.293 28.5027V31.2127C19.293 31.3282 19.2415 31.439 19.1501 31.5201L17.227 33.2263V34.4006C17.2273 34.638 17.0137 34.8317 16.7495 34.8317" fill="#00A2FF"/>
<path fill-rule="evenodd" clip-rule="evenodd" d="M24.0183 34.8317C23.7545 34.8317 23.5404 34.638 23.5404 34.4003V33.226L21.6178 31.5201C21.5264 31.4387 21.4745 31.3276 21.4745 31.2127V28.5027C21.4745 28.2646 21.689 28.0713 21.9524 28.0713C22.2159 28.0713 22.43 28.2649 22.43 28.5027V31.0317L24.353 32.7379C24.4443 32.8189 24.4962 32.93 24.4962 33.0453V34.4003C24.4962 34.638 24.282 34.8317 24.0183 34.8317" fill="#00A2FF"/>
<path fill-rule="evenodd" clip-rule="evenodd" d="M24.0183 34.8317C23.6806 34.8317 23.4059 35.0797 23.4059 35.3844C23.4059 35.6891 23.6806 35.9372 24.0183 35.9372C24.3559 35.9372 24.6307 35.6891 24.6307 35.3844C24.6307 35.0797 24.3562 34.8317 24.0183 34.8317ZM24.0183 36.8C23.1539 36.8 22.4498 36.165 22.4498 35.3841C22.4498 34.6035 23.1532 33.9686 24.0183 33.9686C24.8834 33.9686 25.5865 34.6035 25.5865 35.3841C25.5865 36.165 24.8828 36.8 24.0183 36.8Z" fill="#00A2FF"/>
<path fill-rule="evenodd" clip-rule="evenodd" d="M14.9305 33.0084H12.348C12.0843 33.0084 11.8703 32.8151 11.8703 32.5773C11.8703 32.3395 12.0843 32.1459 12.348 32.1459H14.4528V28.5023C14.4528 28.2643 14.6668 28.071 14.9305 28.071C15.1943 28.071 15.4083 28.2643 15.4083 28.5023V32.5768C15.4083 32.8148 15.1943 33.0084 14.9305 33.0084" fill="#00A2FF"/>
<path fill-rule="evenodd" clip-rule="evenodd" d="M11.2577 32.0242C10.9199 32.0242 10.6452 32.2723 10.6452 32.5771C10.6452 32.8821 10.9199 33.1301 11.2577 33.1301C11.5953 33.1301 11.8701 32.8821 11.8701 32.5771C11.8701 32.2723 11.5954 32.0242 11.2577 32.0242ZM11.2577 33.9926C10.3931 33.9926 9.6897 33.3576 9.6897 32.5768C9.6897 31.7962 10.3931 31.1612 11.2577 31.1612C12.1222 31.1612 12.8256 31.7962 12.8256 32.5768C12.8256 33.3576 12.1222 33.9926 11.2577 33.9926Z" fill="#00A2FF"/>
<path fill-rule="evenodd" clip-rule="evenodd" d="M28.4199 33.0084H25.8375C25.5742 33.0084 25.36 32.8151 25.36 32.5773V28.5023C25.36 28.2643 25.5742 28.071 25.8375 28.071C26.1013 28.071 26.3155 28.2643 26.3155 28.5023V32.1457H28.4199C28.6836 32.1457 28.8978 32.3389 28.8978 32.5768C28.8978 32.8148 28.6836 33.0084 28.4199 33.0084" fill="#00A2FF"/>
<path fill-rule="evenodd" clip-rule="evenodd" d="M29.5102 32.0242C29.1726 32.0242 28.8978 32.2723 28.8978 32.5771C28.8978 32.8821 29.1726 33.1301 29.5102 33.1301C29.8478 33.1301 30.1226 32.8821 30.1226 32.5771C30.1226 32.2723 29.8474 32.0242 29.5102 32.0242ZM29.5102 33.9926C28.6454 33.9926 27.942 33.3576 27.942 32.5768C27.942 31.7962 28.6451 31.1612 29.5102 31.1612C30.3749 31.1612 31.0784 31.7962 31.0784 32.5768C31.0784 33.3576 30.3746 33.9926 29.5102 33.9926Z" fill="#00A2FF"/>
<path fill-rule="evenodd" clip-rule="evenodd" d="M1.56801 14.5662C1.23024 14.5662 0.955486 14.8143 0.955486 15.119C0.955486 15.424 1.23024 15.672 1.56801 15.672C1.90563 15.672 2.18039 15.424 2.18039 15.119C2.18039 14.8143 1.90563 14.5662 1.56801 14.5662V14.5662ZM1.56801 16.5345C0.703248 16.5345 0 15.8996 0 15.1193C0 14.3388 0.703248 13.7039 1.56801 13.7039C2.43262 13.7039 3.13587 14.3388 3.13587 15.1193C3.13587 15.8996 2.43262 16.5345 1.56801 16.5345" fill="#00A2FF"/>
<path fill-rule="evenodd" clip-rule="evenodd" d="M9.19236 17.4153H6.1903C6.06216 17.4153 5.93952 17.3688 5.84961 17.2863L3.95905 15.5507H2.65817C2.39442 15.5507 2.18042 15.3573 2.18042 15.1194C2.18042 14.8814 2.39442 14.6882 2.65817 14.6882H4.15912C4.2871 14.6882 4.40989 14.7346 4.49981 14.8171L6.39021 16.5527H9.19236C9.4561 16.5527 9.67011 16.746 9.67011 16.9841C9.67011 17.222 9.45627 17.4153 9.19236 17.4153" fill="#00A2FF"/>
<path fill-rule="evenodd" clip-rule="evenodd" d="M4.15912 22.1121H2.65817C2.39442 22.1121 2.18042 21.9184 2.18042 21.6807C2.18042 21.4428 2.39442 21.2496 2.65817 21.2496H3.95905L5.84961 19.5135C5.93952 19.431 6.06216 19.3845 6.1903 19.3845H9.19236C9.4561 19.3845 9.67011 19.5778 9.67011 19.8155C9.67011 20.0534 9.4561 20.2469 9.19236 20.2469H6.39021L4.49981 21.983C4.40989 22.0655 4.2871 22.1121 4.15912 22.1121" fill="#00A2FF"/>
<path fill-rule="evenodd" clip-rule="evenodd" d="M1.56801 21.1278C1.23024 21.1278 0.955486 21.3758 0.955486 21.6806C0.955486 21.9856 1.23024 22.2336 1.56801 22.2336C1.90563 22.2336 2.18039 21.9856 2.18039 21.6806C2.18039 21.3758 1.90563 21.1278 1.56801 21.1278V21.1278ZM1.56801 23.0961C0.703248 23.0961 0 22.4612 0 21.6803C0 20.8998 0.703248 20.2648 1.56801 20.2648C2.43262 20.2648 3.13587 20.8998 3.13587 21.6803C3.13587 22.4612 2.43262 23.0961 1.56801 23.0961" fill="#00A2FF"/>
<path fill-rule="evenodd" clip-rule="evenodd" d="M9.19235 13.9087H4.67799C4.41426 13.9087 4.20026 13.7155 4.20026 13.4774V11.1463C4.20026 10.9083 4.41426 10.7151 4.67799 10.7151C4.94174 10.7151 5.15574 10.9083 5.15574 11.1463V13.0462H9.19235C9.45609 13.0462 9.6701 13.2394 9.6701 13.4774C9.6701 13.7155 9.45626 13.9087 9.19235 13.9087Z" fill="#00A2FF"/>
<path fill-rule="evenodd" clip-rule="evenodd" d="M4.678 9.60935C4.34023 9.60935 4.06564 9.85745 4.06564 10.1622C4.06564 10.4671 4.34023 10.7151 4.678 10.7151C5.01578 10.7151 5.29037 10.4671 5.29037 10.1622C5.29037 9.85745 5.01578 9.60935 4.678 9.60935ZM4.678 11.5776C3.8134 11.5776 3.10999 10.9426 3.10999 10.1622C3.10999 9.38188 3.8134 8.74696 4.678 8.74696C5.54261 8.74696 6.24603 9.38188 6.24603 10.1622C6.24603 10.9426 5.54261 11.5776 4.678 11.5776Z" fill="#00A2FF"/>
<path fill-rule="evenodd" clip-rule="evenodd" d="M4.67799 26.0851C4.41426 26.0851 4.20026 25.8918 4.20026 25.6538V23.3228C4.20026 23.0847 4.41426 22.8915 4.67799 22.8915H9.19235C9.45609 22.8915 9.6701 23.085 9.6701 23.3228C9.6701 23.5606 9.45609 23.7539 9.19235 23.7539H5.15574V25.6538C5.15574 25.8918 4.94174 26.0851 4.67799 26.0851" fill="#00A2FF"/>
<path fill-rule="evenodd" clip-rule="evenodd" d="M4.678 26.0851C4.34023 26.0851 4.06564 26.3331 4.06564 26.6379C4.06564 26.9427 4.34023 27.1907 4.678 27.1907C5.01578 27.1907 5.29037 26.9427 5.29037 26.6379C5.29037 26.3331 5.01578 26.0851 4.678 26.0851ZM4.678 28.0535C3.8134 28.0535 3.10999 27.4185 3.10999 26.6376C3.10999 25.8567 3.8134 25.2221 4.678 25.2221C5.54261 25.2221 6.24603 25.8567 6.24603 26.6376C6.24603 27.4185 5.54261 28.0535 4.678 28.0535Z" fill="#00A2FF"/>
<path fill-rule="evenodd" clip-rule="evenodd" d="M25.8963 16.3585C25.812 16.3585 25.741 16.4228 25.741 16.4989V22.9757C25.741 24.1035 26.7572 25.0206 28.0064 25.0206L33.5813 25.0209C34.829 25.0209 35.8438 24.1046 35.8438 22.9787V16.4986C35.8438 16.4224 35.7722 16.3581 35.688 16.3581H25.8963V16.3585ZM33.5813 25.8837H28.0064C26.2303 25.8837 24.7852 24.579 24.7852 22.9757V16.4986C24.7852 15.9454 25.2832 15.4956 25.8963 15.4956H35.6883C36.3014 15.4956 36.8 15.9454 36.8 16.4986V22.9784C36.7997 24.5802 35.3562 25.8837 33.5813 25.8837" fill="#00A2FF"/>
<path fill-rule="evenodd" clip-rule="evenodd" d="M27.5934 15.4959H33.9912V14.5145C33.9912 13.0061 32.6316 11.7787 30.9604 11.7787H30.6234C28.9529 11.7787 27.5931 13.0061 27.5931 14.5145V15.4959H27.5934ZM34.4691 16.3585H27.1158C26.8521 16.3585 26.6379 16.1652 26.6379 15.9271V14.5145C26.6379 12.5305 28.4263 10.9162 30.6244 10.9162H30.9607C33.1588 10.9162 34.9473 12.5305 34.9473 14.5145V15.9271C34.947 16.1653 34.7331 16.3585 34.4691 16.3585Z" fill="#00A2FF"/>
<path fill-rule="evenodd" clip-rule="evenodd" d="M30.4362 22.8108H31.1484V20.8071C31.1484 20.6568 31.2352 20.5176 31.3767 20.4392C31.7112 20.254 31.9104 19.9323 31.9104 19.5781C31.9104 19.0213 31.4089 18.5682 30.7926 18.5682C30.1757 18.5682 29.6742 19.0213 29.6742 19.5781C29.6742 19.932 29.8738 20.254 30.2078 20.4392C30.3494 20.5176 30.4362 20.657 30.4362 20.8071V22.8108ZM31.6267 23.6735H29.9583C29.6946 23.6735 29.4807 23.4799 29.4807 23.2421V21.0288C28.9992 20.6755 28.7187 20.1493 28.7187 19.5781C28.7187 18.546 29.6492 17.7062 30.7929 17.7062C31.9363 17.7062 32.8669 18.546 32.8669 19.5781C32.8669 20.1493 32.5859 20.6755 32.1049 21.0288V23.2421C32.1046 23.4799 31.8903 23.6735 31.6267 23.6735" fill="#00A2FF"/>
</g>
<defs>
<clipPath id="clip0_115_13">
<rect width="36.8" height="36.8" fill="white"/>
</clipPath>
</defs>
</svg>
