<svg width="37" height="37" viewBox="0 0 37 37" fill="none" xmlns="http://www.w3.org/2000/svg">
<path d="M4.88752 13.8H6.90002C7.05815 13.8 7.18752 13.6706 7.18752 13.5125V7.18748H13.5125C13.6706 7.18748 13.8 7.0581 13.8 6.89998V4.88748C13.8 4.72935 13.6706 4.59998 13.5125 4.59998H7.04377C5.69252 4.59998 4.60002 5.69248 4.60002 7.04373V13.5125C4.60002 13.6706 4.7294 13.8 4.88752 13.8ZM23.2875 7.18748H29.6125V13.5125C29.6125 13.6706 29.7419 13.8 29.9 13.8H31.9125C32.0706 13.8 32.2 13.6706 32.2 13.5125V7.04373C32.2 5.69248 31.1075 4.59998 29.7563 4.59998H23.2875C23.1294 4.59998 23 4.72935 23 4.88748V6.89998C23 7.0581 23.1294 7.18748 23.2875 7.18748ZM13.5125 29.6125H7.18752V23.2875C7.18752 23.1294 7.05815 23 6.90002 23H4.88752C4.7294 23 4.60002 23.1294 4.60002 23.2875V29.7562C4.60002 31.1075 5.69252 32.2 7.04377 32.2H13.5125C13.6706 32.2 13.8 32.0706 13.8 31.9125V29.9C13.8 29.7419 13.6706 29.6125 13.5125 29.6125ZM31.9125 23H29.9C29.7419 23 29.6125 23.1294 29.6125 23.2875V29.6125H23.2875C23.1294 29.6125 23 29.7419 23 29.9V31.9125C23 32.0706 23.1294 32.2 23.2875 32.2H29.7563C31.1075 32.2 32.2 31.1075 32.2 29.7562V23.2875C32.2 23.1294 32.0706 23 31.9125 23ZM32.4875 17.1062H4.31252C4.1544 17.1062 4.02502 17.2356 4.02502 17.3937V19.4062C4.02502 19.5644 4.1544 19.6937 4.31252 19.6937H32.4875C32.6456 19.6937 32.775 19.5644 32.775 19.4062V17.3937C32.775 17.2356 32.6456 17.1062 32.4875 17.1062Z" fill="#00A2FF"/>
</svg>
