<svg width="37" height="37" viewBox="0 0 37 37" fill="none" xmlns="http://www.w3.org/2000/svg">
<path d="M3.06666 26.0667H33.7333V29.1333H3.06666V26.0667ZM4.82999 19.8567L6.13333 17.5873L7.43666 19.8567L9.42999 18.7067L8.12666 16.4373H10.7333V14.1373H8.12666L9.42999 11.8833L7.43666 10.7333L6.13333 12.9873L4.82999 10.7333L2.83666 11.8833L4.13999 14.1373H1.53333V16.4373H4.13999L2.83666 18.7067L4.82999 19.8567V19.8567ZM15.1033 18.7067L17.0967 19.8567L18.4 17.5873L19.7033 19.8567L21.6967 18.7067L20.3933 16.4373H23V14.1373H20.3933L21.6967 11.8833L19.7033 10.7333L18.4 12.9873L17.0967 10.7333L15.1033 11.8833L16.4067 14.1373H13.8V16.4373H16.4067L15.1033 18.7067V18.7067ZM35.2667 14.1373H32.66L33.9633 11.8833L31.97 10.7333L30.6667 12.9873L29.3633 10.7333L27.37 11.8833L28.6733 14.1373H26.0667V16.4373H28.6733L27.37 18.7067L29.3633 19.8567L30.6667 17.5873L31.97 19.8567L33.9633 18.7067L32.66 16.4373H35.2667V14.1373Z" fill="#00A2FF"/>
</svg>
