<svg width="37" height="37" viewBox="0 0 37 37" fill="none" xmlns="http://www.w3.org/2000/svg">
<path d="M18.6264 16.4953C18.5995 16.461 18.5651 16.4332 18.5259 16.4141C18.4867 16.3949 18.4436 16.385 18.4 16.385C18.3563 16.385 18.3133 16.3949 18.2741 16.4141C18.2348 16.4332 18.2005 16.461 18.1736 16.4953L14.1486 21.5877C14.1154 21.63 14.0948 21.6809 14.0892 21.7344C14.0835 21.7879 14.0931 21.842 14.1167 21.8903C14.1403 21.9387 14.177 21.9794 14.2227 22.0079C14.2684 22.0363 14.3212 22.0514 14.375 22.0513H17.0308V30.7625C17.0308 30.9206 17.1601 31.05 17.3183 31.05H19.4745C19.6326 31.05 19.762 30.9206 19.762 30.7625V22.0549H22.425C22.6658 22.0549 22.7987 21.7781 22.6514 21.5913L18.6264 16.4953Z" fill="#00A2FF"/>
<path d="M29.1597 13.1783C27.5137 8.83703 23.3198 5.75 18.4072 5.75C13.4945 5.75 9.30061 8.83344 7.65468 13.1747C4.57483 13.9833 2.29999 16.79 2.29999 20.125C2.29999 24.0961 5.51639 27.3125 9.48389 27.3125H10.925C11.0831 27.3125 11.2125 27.1831 11.2125 27.025V24.8687C11.2125 24.7106 11.0831 24.5812 10.925 24.5812H9.48389C8.2728 24.5812 7.13358 24.0997 6.28546 23.2264C5.44093 22.3567 4.99171 21.1852 5.03124 19.9705C5.06358 19.0217 5.38702 18.1305 5.9728 17.3794C6.57296 16.6139 7.41389 16.0569 8.34827 15.8089L9.7103 15.4531L10.2098 14.1378C10.5189 13.3184 10.9501 12.553 11.4928 11.8594C12.0285 11.1719 12.6631 10.5676 13.3759 10.0661C14.853 9.0275 16.5923 8.47766 18.4072 8.47766C20.222 8.47766 21.9614 9.0275 23.4384 10.0661C24.1536 10.5692 24.7861 11.173 25.3215 11.8594C25.8642 12.553 26.2955 13.322 26.6045 14.1378L27.1005 15.4495L28.4589 15.8089C30.4067 16.3336 31.7687 18.1053 31.7687 20.125C31.7687 21.3145 31.3051 22.4358 30.4642 23.2767C30.0518 23.6915 29.5612 24.0204 29.0208 24.2444C28.4804 24.4683 27.901 24.5828 27.3161 24.5812H25.875C25.7169 24.5812 25.5875 24.7106 25.5875 24.8687V27.025C25.5875 27.1831 25.7169 27.3125 25.875 27.3125H27.3161C31.2836 27.3125 34.5 24.0961 34.5 20.125C34.5 16.7936 32.2323 13.9905 29.1597 13.1783Z" fill="#00A2FF"/>
</svg>
